<svg fill="currentColor" xmlns="http://www.w3.org/2000/svg" xmlns:xlink="http://www.w3.org/1999/xlink" version="1.1" x="0px" y="0px" viewBox="0 0 1122 1122" style="enable-background:new 0 0 1122 1122;" xml:space="preserve">

<g id="Object">
	<path style="fill:currentColor" d="M872.348,617.095c1.647-2.005,1.79-4.191-0.051-5.961c-1.549-1.489-3.056-0.683-4.025,1.089h0   c-3.668,4.429-7.336,8.858-11.004,13.287l0,0l0,0c-1.909,1.216-3.56,2.688-4.665,4.701c-2.282,1.996-4.564,3.992-6.846,5.988   c-4.07,2.53-8.139,5.06-12.209,7.59c-0.76,0.375-1.52,0.75-2.28,1.125c-1.147-0.864-0.473-2.056-0.636-3.115   c-1.069-6.937,2.729-13.304,2.238-20.15c0.304-4.553-0.166-8.952-2.594-12.958c0,0,0,0,0,0c-1.304-4.574-2.903-9.005-6.155-12.629   c-6.037-9.992-15.493-13.377-26.135-9.356c-5.614,1.206-10.649,3.593-15.005,7.364c0,0,0,0,0,0   c-4.919,2.441-8.743,6.249-12.155,10.376c-17.843,21.578-28.526,46.708-36.049,73.375c-2.673,5.648-4.35,11.941-3.64,17.812   c1.396,11.543-1.692,20.367-11.479,26.723l0,0c-4.349,3.292-8.698,6.585-13.048,9.877c-0.175,0.336-0.349,0.672-0.524,1.008   c-6.253-1.168-8.66-5.396-9.2-11.29c-1.371-14.983-0.85-29.967-0.198-44.954c1.073-4.728,3.44-8.769,6.116-12.791   c7.107-10.681,13.887-21.579,19.299-33.255c4.556-6.783,8.682-13.812,12.182-21.201c2.734-3.64,5-7.542,6.628-11.802   c1.557-1.623,2.563-3.54,3.055-5.731l0,0c5.291-8.588,9.445-17.722,13.045-27.123v0c4.647-8.703,8.575-17.724,11.93-26.998   c0-0.001,0-0.001,0.001-0.002c2.822-4.825,4.883-9.97,6.46-15.319l0,0c5.246-11.338,9.566-23.017,12.904-35.057   c2.199-4.566,3.738-9.322,4.139-14.405c0,0,0,0,0,0c-0.034-1.041-0.069-2.082-0.104-3.123l0,0v0c2.289-0.43,2.163-2.467,2.562-4.04   c3.362-13.232,6.009-26.625,7.319-40.203c0.877-9.09,3.055-18.227,0.651-27.421c-0.001-0.003-0.001-0.005-0.001-0.008   c-0.638-6.186-2.274-11.792-8.558-14.689c-1.919-1.434-4.147-1.995-6.44-1.678c-7.172,0.992-12.381,5.246-16.91,10.538   c-4.103,2.697-7.026,6.578-10.036,10.31c-15.068,18.683-28.417,38.575-39.697,59.728c-25.37,47.574-43.208,98.138-58.057,149.806   c-4.96,17.259-9.019,34.755-9.932,52.808l0,0.001c-1.774,6.968-0.9,13.984-0.387,20.995c-1.435,3.137-2.87,6.273-4.305,9.41   c-0.986,2.654-5.167,3.342-4.366,7.096c-0.79,0.803-1.581,1.605-2.371,2.408c-2.455,1.215-3.594,3.541-4.857,5.762c0,0,0,0,0,0   c-3.304,3.607-6.607,7.214-9.911,10.821c-3.02,2.024-6.04,4.048-9.06,6.072l0,0c-3.03,0.075-6.059,0.151-9.089,0.226   c-5.939-2.752-8.433-7.38-7.474-13.84c1.158-7.806,2.302-15.614,3.552-23.406c3.075-19.177,6.207-38.346,9.316-57.518   c1.025,0.018,1.767-0.351,2.308-1.302c5.451-9.575,11.192-18.998,15.264-29.291c0-0.001,0-0.001,0.001-0.002   c3.985-6.411,7.086-13.242,9.687-20.313l0,0c3.972-7.083,7.216-14.488,9.821-22.177l0,0c3.617-6.736,6.408-13.811,8.648-21.112l0,0   c5.259-11.335,9.56-23.021,12.873-35.071l0,0c0.414-0.853,0.939-1.67,1.226-2.564c8.243-25.703,13.999-51.988,17.862-78.67   c1.568-10.828,2.2-21.789-0.635-32.603c0-0.001,0-0.002,0-0.004c-1.743-6.886-4.431-8.728-10.886-7.465   c-12.503,2.97-20.401,11.78-27.463,21.652c-15.538,19.523-28.628,40.646-39.161,63.188   c-23.314,49.895-41.827,101.505-53.397,155.466c-0.381,0.629-0.969,1.214-1.114,1.893c-4.565,21.329-7.206,42.859-4.721,64.64   c0.694,6.086,0.525,11.295-3.61,15.967c0,0,0.001,0,0.001,0c-1.189,1.053-2.618,1.93-2.779,3.747l0,0   c-3.559,4.672-7.118,9.345-10.677,14.017c-1.533,1.456-3.365,2.675-3.9,4.922c-0.563,1.795-2.674,1.869-3.61,3.25v0   c-1.464,1.283-2.927,2.566-4.391,3.849c-1.969,1.218-3.938,2.437-5.907,3.655c-0.944,0.085-2.006-0.064-2.364,1.188   c-1.44,0.085-2.881,0.17-4.322,0.255c-5.015,0.323-10.017,1.044-15.06,0.486c-8.653-4.315-11.619-11.938-11.705-20.926   c-0.092-9.617,0.297-19.234,1.985-28.745c1.879-2.177,3.811-4.311,5.627-6.539c13.115-16.082,23.899-33.521,30.102-53.455   c2.753-8.846,4.309-17.93,1.216-27.126l0,0c-0.011-1.242-0.013-2.488-1.229-3.271c-0.004-2-0.774-3.602-2.473-4.72l0,0   c-6.429-7.431-16.186-7.045-25.777,1.02c-6.558,3.982-11.436,9.743-15.659,15.907c-15.958,23.295-27.355,48.598-32.061,76.597   c-1.993,11.859-2.098,23.764,1.824,35.389c1.414,4.574-0.341,8.002-3.738,11.005c-1.839,1.626-3.376,3.593-5.049,5.406l0,0   c-2.27,1.185-4.271,2.709-5.907,4.693c0,0-0.001,0-0.001,0c-2.568,1.662-5.137,3.323-7.705,4.985l-0.001,0   c-0.38,0.291-0.759,0.581-1.138,0.872l0,0c-4.537,1.002-9.132,1.055-13.744,0.847c-2.284-1.259-5.01-1.67-6.94-3.611   c-2.539-8.575-0.514-16.813,1.901-25.002c5.784-19.612,12.086-39.086,15.693-59.272c3.2-17.909,5.488-35.944,3.49-54.121   c-1.279-11.641-2.959-23.461-12.58-31.974c-0.511-0.537-0.93-1.233-1.546-1.587c-7.775-4.469-14.273-1.994-21.406,8.101   c-3.259,3.049-5.926,6.526-7.683,10.658c-0.133,2.123-2.605,3.208-2.427,5.47c-0.397,0.005-0.723,0.161-0.977,0.466   c-2.184,1.198-2.693,3.447-3.471,5.528l0,0c-2.079,2.41-3.457,5.195-4.394,8.216l0,0c-3.766,6.934-7.583,13.841-11.287,20.809   c-7.875,14.811-16.021,29.497-21.596,45.404l0,0c-3.859,8.656-7.718,17.312-11.578,25.968c-2.147,3.964-4.295,7.929-6.443,11.893   c-1.718-0.989-1.365-2.547-1.11-4.071c2.74-16.381,5.741-32.725,8.116-49.159c1.185-8.203,3.911-16.297,2.654-24.777   c0-0.001,0-0.002,0-0.003c-0.24-0.235-0.419-0.51-0.537-0.824v0c0.667-0.307,1.622-0.429,1.958-0.95   c11.305-17.48,22.989-34.734,32.301-53.42c0,0,0,0,0,0c2.518-3.168,4.264-6.737,5.5-10.571h0c4.06-6.714,7.339-13.786,9.745-21.258   l0,0c0.486-0.812,1.095-1.574,1.44-2.442c18.353-46.079,32.886-93.314,42.662-141.964c2.952-14.69,3.597-29.409-1.074-43.979   c-2.061-6.43-5.617-11.341-12.329-13.429l0,0c-0.009-0.409-0.017-0.819-0.026-1.228c-2.317,0.072-4.633,0.143-6.95,0.215   c0.034,0.435,0.068,0.87,0.102,1.305c-0.171,0.261-0.293,0.543-0.365,0.847h0c-1.342-0.011-2.632,0.12-3.55,1.281   c0,0-0.001,0-0.001,0c-4.509,1.279-8.163,3.878-11.283,7.303c-8.721,6.974-15.235,15.83-21.342,25.032   c-15.519,19.98-27.505,41.996-35.936,65.744c-22.67,63.854-38.78,129.381-48.292,196.481c-2.025,14.284-3.08,28.705-4.583,43.062   c-3.371,3.532-6.742,7.064-10.113,10.596c-1.088,0.955-2.175,1.909-3.263,2.864c-2.131,0.345-3.758,1.395-4.717,3.377l0,0   c0,0,0,0,0,0l0,0c0.004,0,0.007,0,0.01,0c-1.134,0.721-2.268,1.441-3.401,2.162c-0.702,0.541-1.403,1.082-2.105,1.622   c-1.577-0.686-2.373,0.657-3.43,1.321c-2.028-0.13-3.467,0.637-2.904,2.834c0.359,1.401,1.922,1.776,3.269,1.379   c1.927-0.568,4.104-0.48,5.697-2.004c0.334-0.388,0.667-0.776,1.001-1.164c0.837-0.229,1.904,0.016,2.304-1.116   c3.201-0.269,6.002-1.383,8.153-3.867c1.437-0.379,2.602-1.123,3.312-2.474l0,0c2.472-0.511,3.415-3.606,6.414-3.813   c0.803,9.063-0.15,18.136,2.087,26.931l0,0.001c0.352,3.238,0.57,6.497,1.081,9.709c1.242,7.809,2.876,15.566,7.329,22.267   c5.349,8.049,13.459,8.692,19.525,1.823c2.504-2.172,3.587-5.109,4.403-8.189v0l0,0c2.828-4.791,4.814-9.943,6.535-15.21   c4.087-7.62,7.896-15.368,10.858-23.508c2.874-4.805,4.958-9.944,6.459-15.328c1.774-2.451,2.667-5.252,3.248-8.177   c1.399-1.724,2.023-3.753,2.328-5.908h0h0c2.52-5.254,4.775-10.611,6.357-16.233l0,0c4.672-9.482,9.335-18.968,14.018-28.445   c3.563-7.208,8.225-13.851,11.031-21.449c0.657-0.94,1.385-1.855,1.091-3.126c0,0,0,0,0,0c3.213-1.47,4.557-3.996,4.22-7.471   c0.433-0.631,0.866-1.262,1.298-1.893c3.765-1.617,4.776-5.382,6.621-8.495c2.214-2.482,4.427-4.963,6.641-7.444h0h0   c2.128,0.505,0.737,2.342,1.302,3.439c-7.245,22.558-14.304,45.164-19.651,68.274c-4.036,17.445-5.106,35.058-3.408,52.83   c1.173,12.284,4.604,23.859,12.629,33.572c3.788,4.585,7.895,8.942,14.294,9.847l-0.099,0.1c9.623,1.843,19.033,1.783,27.901-3.122   c5.338-2.085,9.621-5.676,13.677-9.589c2.914-1.832,5.97-3.532,6.838-7.285l-0.466-0.282l0,0c0.013-0.044,0.02-0.089,0.032-0.133   c0.145,0.138,0.29,0.277,0.434,0.415c2.33,0.05,3.208-1.905,4.271-3.359c1.491-2.039,2.891-2.038,4.597-0.459   c4.581,6.995,10.597,12.136,18.748,14.521c8.432,4.038,17.077,4.417,25.913,1.511c3.921-0.883,8.367-0.619,10.727-4.911l0,0   c0.602-0.121,1.204-0.242,1.806-0.363c1.174-0.681,2.349-1.361,3.523-2.042c3.047,0.128,4.918-1.852,6.809-3.797   c0.026-0.001,0.051-0.012,0.074-0.034c2.17-0.954,4.168-2.073,4.54-4.753c1.944-1.058,3.465-2.543,4.524-4.493   c1.5-0.871,2.537-2.154,3.29-3.691l0,0c2.601-2.9,5.375-5.676,6.735-9.459l0,0c2.914-2.652,5.237-5.717,6.625-9.44   c2.201-1.115,2.829-3.521,4.295-5.238v0l0,0c1.325-0.973,2.645-2.215,4.015-0.946c0.209,0.289,0.438,0.573,0.69,0.851   c0.826,2.157,1.523,4.374,2.499,6.46c5.481,11.708,13.088,21.257,26.062,25.246l0,0c2.486,1.625,5.248,2.168,8.17,2.087   c5.922,1.631,11.798,1.581,17.619-0.482c4.047-0.309,7.46-2.004,10.393-4.749l0,0c4.322-2.219,7.486-5.651,10.107-9.652v0   c4.069-3.785,7.307-8.211,10.054-13.018c1.569-1.375,3.064-2.797,3.17-5.084c0.354-0.785,0.708-1.569,1.062-2.354   c1.25-1.924,2.5-3.848,3.75-5.772c1.56-0.081,2.004,1.528,3.147,2.078v0v0c0.392,0.778,0.784,1.556,1.175,2.334   c1.548,9.928,4.667,19.329,10.088,27.808c4.043,6.322,8.83,12.006,16.434,14.351c9.134,4.198,18.195,5.115,27.105-0.612   c3.479-1.481,5.815-4.214,7.903-7.218l0,0v0c2.358-1.562,4.149-3.642,5.556-6.073c2.729-2.933,5.469-5.855,8.181-8.804   c1.167-1.27,2.2-2.958,4.036-0.817c0,0,0,0,0,0c2.74,9.3,6.667,17.68,16.586,21.423c6.459,3.453,12.808,2.539,19.103-0.484   c3.893-0.692,7.249-2.494,10.274-4.979c1.536-0.207,2.611-1.097,3.449-2.336l0,0c6.255-4.331,10.89-10.078,14.56-16.667   c2.162-1.99,3.606-4.431,4.513-7.207l0,0c1.154-0.919,1.871-2.09,2.051-3.569l0,0c2.771-3.597,5.012-7.492,6.606-11.751   c2.049-2.524,3.807-5.196,4.311-8.504c0.027-0.613,0.053-1.227,0.08-1.841c3.453-1.38,3.847-4.524,4.377-7.589l0,0   c-0.024-0.622-0.048-1.245-0.072-1.867c4.845-4.594,5.229-10.848,6.272-16.858c0.214-0.3,0.296-0.632,0.244-0.997   c10.468-3.874,19.997-9.166,27.191-17.989v0c1.578-0.798,2.631-2.072,3.331-3.667l0,0c3.239-2.687,5.788-5.932,7.784-9.625   c2.141-1.533,3.186-3.867,4.428-6.058c1.672-1.102,2.377-2.684,2.314-4.649l0,0L872.348,617.095z M707.148,623.562   c7.287-34.518,15.757-68.745,25.374-102.682c6.466-22.817,13.555-45.434,23.657-66.975c8.75-18.66,17.857-37.136,28.282-54.932   c0.05-0.292,0.138-0.559,0.221-0.829c2.644-1.074,4.225-3.205,5.071-6.068c0.003-0.003,0.007-0.004,0.01-0.007   c0.138,0.366,0.398,0.8,0.81,1.319c3.618,2.328,5.737,5.621,5.98,9.939c0.311,5.544,0.464,11.071,0.059,16.648   c-0.878,12.076-4.199,23.774-5.187,35.81c0.083,0.96,0.236,1.9,0.587,2.783c-0.26,0.948-0.519,1.895-0.779,2.843   c-1.913,3.122-1.339,7.397-3.815,10.257c-4.855,12.697-8.693,25.767-14.047,38.282c-0.615,1.436-0.805,2.969,0.184,4.394   c0.174-0.012,0.327-0.041,0.487-0.064c-0.064,0.066-0.116,0.139-0.184,0.204c-0.756,0.993-1.474,1.997-1.082,3.36   c-2.747,2.589-3.787,5.968-4.415,9.538l0,0c-0.369,1.022-0.737,2.043-1.105,3.065l0,0c-4.823,7.017-7.701,14.97-10.954,22.743l0,0   c-4.478,8.006-8.522,16.225-12.071,24.685l0,0c-6.902,12.502-13.803,25.004-20.705,37.506l0,0l0,0   c-3.237,4.337-5.771,9.059-7.725,14.099l0,0c-5.481,7.818-8.681,17.018-14.903,25.032c-0.051-0.476-0.097-0.913-0.14-1.323   c0.208-1.046,0.47-2.076,1.009-3.028C704.319,641.448,705.279,632.414,707.148,623.562z M655.765,447.596   c5.095-16.034,12.493-31.114,19.706-46.26c0.073-0.353,0.171-0.691,0.273-1.027c3.884-1.834,5.874-6.045,9.529-8.167   c0.075-0.017,0.147-0.021,0.219-0.024c-0.201,0.158-0.416,0.318-0.647,0.48c-0.596,1.866,0.192,3.497,0.905,5.135   c0.568,2.226,1.222,4.448,1.656,6.701c0.172,4.541-0.015,9.057-0.426,13.561c-1.307,10.876-3.044,21.684-5.427,32.4   c-0.624,2.807-1.627,5.598-1.883,8.484c-3.194,13.514-6.965,26.879-10.873,40.214l0,0c-4.622,12.504-9.245,25.008-13.868,37.512   l0,0c-5.721,12.959-11.441,25.918-17.162,38.877l0,0h0c-1.651,2.089-2.755,4.433-3.296,7.042c-1.658,2.081-2.826,4.399-3.376,7.013   c-3.563,6.726-7.125,13.453-10.688,20.179c-0.951-0.558-1.1-1.352-1.028-2.223c0.038-0.199,0.088-0.393,0.123-0.593   c0.771-4.349,1.495-8.705,2.205-13.064c0.618-3.611,1.222-7.225,1.776-10.846c0.993-6.496,2.385-12.937,3.301-19.445   c0.655-3.551,1.335-7.098,2.079-10.633C635.726,517.266,644.775,482.179,655.765,447.596z M500.674,636.641   c2.679-11.069,5.821-21.925,14.116-30.392c0.06-0.049,0.125-0.094,0.187-0.141c0.854,0.48,1.771,0.848,2.636,1.306   c-0.205,1.92,0.469,3.451,2.785,4.252c0.026,0.019,0.044,0.041,0.07,0.06c-1.495,1.504-0.967,3.564-1.084,5.421   c-0.303,4.821-1.039,9.544-2.635,14.128c-5.497,15.788-14.032,29.902-23.778,43.357c-0.417,0.575-0.798,1.18-1.356,1.501   C494.853,663.016,497.497,649.767,500.674,636.641z M364.418,583.921c0.003,0.029,0.006,0.058,0.009,0.087   c-0.016-0.005-0.034-0.013-0.05-0.018C364.391,583.967,364.404,583.944,364.418,583.921z M361.763,477.09   c3.957-20.283,7.698-40.599,15.408-59.939c3.438-8.625,8.341-16.544,11.572-25.247c0.642-2.332,1.483-4.559,2.445-6.723   c2.844-4.754,5.687-9.509,8.531-14.263c2.225-2.07,4.45-4.14,6.675-6.209c4.153-2.042,6.952-0.062,9.336,3.145   c3.645,10.993,4.393,22.245,2.644,33.631c-4.641,30.209-13.589,59.331-22.545,88.446c-7.147,23.237-16.16,45.775-25.528,68.181   c-2.391,4.762-4.783,9.524-7.174,14.287c-2.297,4.237-4.594,8.473-6.891,12.709c-1.791,1.635-2.911,3.653-3.429,6.014   c-4.088,6.959-9.634,13.089-11.958,21.051c-0.646,0.173-1.292,0.346-1.938,0.519c-1.66-1.031-1.427-2.44-1.136-3.898   c0.379-1.627,0.784-3.246,1.066-4.906c0.968-5.707,1.925-11.416,2.885-17.124c1.648-9.208,3.258-18.421,4.714-27.659   c0.73-4.187,1.468-8.372,2.224-12.554c0.503-2.535,0.997-5.073,1.401-7.623c0.693-3.728,1.396-7.454,2.121-11.176   C355.212,510.83,358.473,493.957,361.763,477.09z M330.186,714.954c0.021-0.033,0.042-0.066,0.062-0.099l0,0c0,0,0,0,0,0   c0.003,0.042,0.005,0.084,0.007,0.127C330.233,714.974,330.208,714.962,330.186,714.954z M413.781,754.134   c-0.006,0.02-0.006,0.035-0.012,0.055c-0.019-0.018-0.041-0.033-0.059-0.052C413.733,754.135,413.757,754.136,413.781,754.134z    M411.665,762.141c0.001,0,0.002,0,0.002,0c0.248-0.19,0.488-0.445,0.733-0.652c-0.055,0.205-0.103,0.437-0.152,0.7   c-0.193-0.015-0.385-0.025-0.581-0.048C411.667,762.14,411.666,762.14,411.665,762.141z M828.636,641.334   c0.334-0.19,0.205-0.016-0.014,0.101c0.003-0.043,0.007-0.085,0.01-0.128C828.634,641.316,828.635,641.326,828.636,641.334z    M824.57,632.663c-1.757,4.692-0.778,9.509-0.632,14.286c0.041,0.084,0.089,0.154,0.136,0.228c-1.651-1.32-3.659-1.104-5.615-1.123   c-1.909,0.238-3.435-0.133-4.544-1.169c-1.452-1.82-1.788-4.224-1.251-7.085v0v0c0.686-1.662,1.372-3.324,2.057-4.986   c2.176-1.588,3.416-4.422,6.429-4.897c-0.002,0.003-0.004,0.005-0.006,0.008c0.277,2.329,1.11,4.184,3.799,4.461   c0.025,0.022,0.045,0.045,0.07,0.067C824.874,632.51,824.728,632.577,824.57,632.663z M848.38,636.24   c0.006-0.001,0.012-0.002,0.018-0.002c-0.001,0.003-0.003,0.006-0.005,0.01h0l0,0L848.38,636.24   c-0.075,0.078-0.158,0.142-0.234,0.219c0.003-0.074,0.01-0.145,0.011-0.222C848.231,636.238,848.305,636.239,848.38,636.24z    M772.958,709.325c5.163-35.262,12.573-69.906,30.646-101.287c1.67-4.154,4.346-6.619,8.536-7.399   c1.534,0.27,3.346,1.294,6.173,2.91c0.004,0.002,0.007,0.004,0.011,0.007c-0.07,0.032-0.139,0.061-0.212,0.1   c0.187,5.624,4.191,9.575,6.306,14.351c0.799,0.975,1.106,2.197,1.476,3.387c-0.042,0.316-0.119,0.632-0.289,0.951   c-7.383-2.124-11.579-0.905-15.052,4.359c-0.721,0.064-1.044,0.489-1.074,1.181c-7.87,4.673-9.741,17.795-3.553,24.914   c2.292,3.289,5.503,5.03,9.413,5.598c1.926,1.025,3.96,1.694,6.104,1.994c-0.162,0.742-0.194,1.491-0.084,2.249   c0.062,0.328,0.159,0.636,0.279,0.93c-0.707,1.521-1.309,3.074-1.742,4.682c-0.402,1.093-0.766,2.211-1.495,3.083   c-1.533,3.202-3.934,6.07-3.742,9.92c0.055,0.082,0.125,0.139,0.184,0.213c-0.812,0.476-1.274,1.26-1.703,2.07   c-0.169,0.396-0.351,0.784-0.535,1.171c-0.858,0.89-1.437,1.935-1.743,3.129c-0.322,0.488-0.66,0.966-1.023,1.43   c-0.522,0.921-0.978,1.85-0.441,2.932c0.005,0.005,0.01,0.008,0.015,0.013c-0.064,0.148-0.075,0.311-0.018,0.494   c-3.36,1.374-4.379,4.404-5.303,7.5c-0.426,0.733-0.852,1.465-1.278,2.198c-3.203,2.522-4.925,6.111-6.871,9.538l0,0   c-3.689,4.002-7.378,8.003-11.067,12.005c-1.977,1.186-3.955,2.371-5.932,3.557c0,0,0,0-0.001,0   c-1.722,0.361-3.444,0.721-5.167,1.082c-0.374-0.323-0.727-0.668-1.04-1.057C770.088,721.453,772.088,715.268,772.958,709.325z    M798.614,717.76c0.015-0.01,0.029-0.022,0.044-0.032c0.002,0.009,0.003,0.019,0.005,0.028   C798.646,717.757,798.631,717.759,798.614,717.76z M811.69,694.432c0.061-0.094,0.122-0.188,0.182-0.283   c0.005,0.06,0.01,0.12,0.015,0.18C811.821,694.362,811.756,694.397,811.69,694.432z M871.72,617.763   c0.123-0.274,0.299-0.515,0.63-0.658C872.14,617.324,871.93,617.543,871.72,617.763z"/>
</g>
</svg>
